<svg width="500" height="500" viewBox="0 0 500 500" fill="none" xmlns="http://www.w3.org/2000/svg">
<rect width="500" height="500" fill="white"/>
<path fill-rule="evenodd" clip-rule="evenodd" d="M272.799 118.692C272.799 95.4613 261.563 49 216.622 49H95.6252C76.8996 50.4519 38.584 62.9384 35.127 101.269V131.759C35.127 150.634 47.2266 188.384 95.6252 188.384H164.766V205.807C164.766 221.778 178.594 254.591 233.907 258.076C289.22 261.561 320.333 259.528 328.976 258.076C353.463 256.624 402.438 245.88 402.438 214.518V170.961C403.878 153.538 392.931 118.692 337.618 118.692H272.799ZM229.586 109.98V162.249H337.618C354.904 162.249 359.225 173.865 359.225 179.672V201.451C359.225 211.905 344.821 214.518 337.618 214.518H233.907C216.622 214.518 212.301 202.903 212.301 197.095V144.826H104.268C86.9826 144.826 82.6613 136.115 82.6613 131.759V109.98C82.6613 96.0421 97.0657 92.5575 104.268 92.5575H207.979C228.721 92.5575 229.586 101.269 229.586 109.98Z" fill="#00448A"/>
<path d="M180.73 370.965C180.73 394.335 172.986 413.568 157.498 428.665C142.214 443.555 123.67 451 101.865 451C80.6712 451 62.2286 443.555 46.5372 428.665C30.8457 413.775 23 394.541 23 370.965C23 347.182 30.6419 327.949 45.9258 313.266C61.4135 298.376 80.0599 290.931 101.865 290.931C123.67 290.931 142.214 298.479 157.498 313.576C172.986 328.466 180.73 347.596 180.73 370.965ZM55.7075 370.965C55.7075 385.856 59.987 397.954 68.546 407.26C77.105 416.36 88.2113 420.909 101.865 420.909C115.518 420.909 126.625 416.36 135.184 407.26C143.743 397.954 148.022 385.856 148.022 370.965C148.022 356.075 143.743 344.08 135.184 334.981C126.625 325.674 115.518 321.021 101.865 321.021C88.2113 321.021 77.105 325.674 68.546 334.981C59.987 344.08 55.7075 356.075 55.7075 370.965Z" fill="#00448A"/>
<path d="M191.77 354.524C191.77 333.43 197.679 317.609 209.499 307.062C221.318 296.514 237.723 291.241 258.713 291.241C279.499 291.241 295.802 296.825 307.621 307.992C319.441 318.953 325.351 334.36 325.351 354.214V446.967H292.338V355.455C292.338 332.913 281.129 321.642 258.713 321.642C236.093 321.642 224.783 332.913 224.783 355.455V446.967H191.77V354.524Z" fill="#00448A"/>
<path d="M442.727 368.097C455.156 371.711 464.022 376.83 469.323 383.456C474.624 389.931 477 397.535 476.451 406.268C475.538 419.821 468.866 430.662 456.436 438.794C444.189 446.774 426.275 450.84 402.695 450.991C380.761 451.141 362.573 449.485 348.132 446.021V423.886C364.949 427.5 383.228 429.232 402.97 429.081C417.776 428.931 428.743 426.747 435.872 422.531C443.184 418.315 446.839 413.045 446.839 406.72C446.839 397.384 440.716 390.909 428.469 387.296L382.406 374.195C372.352 371.334 364.035 366.892 357.455 360.869C350.874 354.695 347.584 346.94 347.584 337.604C347.584 324.956 352.794 314.265 363.213 305.531C373.632 296.797 389.9 291.979 412.018 291.075C427.007 290.473 443.366 291.753 461.097 294.915V317.05C444.646 313.587 428.652 312.307 413.114 313.21C400.319 313.963 391.18 316.222 385.696 319.987C380.212 323.751 377.47 329.172 377.47 336.249C377.47 345.133 383.777 351.382 396.389 354.996L442.727 368.097Z" fill="#00448A"/>
</svg>
